<?xml version="1.0" encoding="utf-8"?>
<!-- Generator: Adobe Illustrator 24.0.0, SVG Export Plug-In . SVG Version: 6.00 Build 0)  -->
<svg version="1.1" id="Layer_1" xmlns="http://www.w3.org/2000/svg" xmlns:xlink="http://www.w3.org/1999/xlink" x="0px" y="0px"
	 viewBox="0 0 735 852" style="enable-background:new 0 0 735 852;" xml:space="preserve">
<style type="text/css">
	.st0{fill:#00205B;}
	.st1{fill:#6EC4E8;}
	.st2{fill:#E6B35A;}
	.st3{fill:#E5B259;}
	.st4{fill:none;}
	.st5{fill:#0055B7;}
	.st6{fill:none;stroke:#FFFFFF;stroke-width:3;stroke-miterlimit:10;}
	.st7{fill:none;stroke:#FFFFFF;stroke-width:1.5;stroke-miterlimit:10;}
	.st8{fill:#FFFFFF;}
	.st9{font-family:'Menlo-Bold';}
	.st10{font-size:102px;}
</style>
<path class="st0" d="M18.6,626.9V223.6l51.6-29.8L367.9,22l0,0l296.7,171.3l52.6,30.3v403.3L367.9,828.5L18.6,626.9z"/>
<path class="st1" d="M734.9,637.4V213.1l-29.3-16.9L427.8,35.8L367.5,1l-60.3,34.8L29.4,196.2L0.1,213.1v424.2l29.3,16.9
	l281.3,162.4l56.9,32.8l56.9-32.8l281.3-162.4L734.9,637.4z M29.4,621.5V231l50-28.9L367.5,35.8l0,0l287.2,165.8l50.9,29.4v390.5
	L367.5,816.7L29.4,621.5z"/>
<path class="st2" d="M367,633.9c0.3-0.3,0.6-0.6,0.9-0.9h-0.3C367.5,633.3,367.3,633.6,367,633.9z"/>
<path class="st3" d="M367,633.9c0.3-0.3,0.6-0.6,0.9-0.9h-0.3C367.5,633.3,367.3,633.6,367,633.9z"/>
<rect x="198" y="605" class="st4" width="343" height="92"/>
<image style="overflow:visible;" width="305" height="204" xlink:href="F18D13388411EF23.png"  transform="matrix(1 0 0 1 110 324)">
</image>
<path class="st5" d="M512,425.2c-27.1,0.5-51.9-22.3-51.9-50c0.1-28,24.6-50.3,52.3-50.1c28.5,0.2,51.8,22.5,51.8,50.1
	C564.2,404.2,539.5,425.6,512,425.2z"/>
<rect x="214.7" y="383.7" class="st5" width="157.2" height="144.2"/>
<ellipse class="st0" cx="372" cy="498" rx="43" ry="30"/>
<path class="st5" d="M594.9,569.2c-2.4,6.2-6.9,8.8-13.4,8.3c-1.4-0.1-2.7,0-4.1,0c-7.9,0-11.8-3.8-11.8-11.7c0-25.3,0-50.7,0-76
	c0-4.7-1.2-6.4-4.9-7.1c-3.3-0.6-6,1.3-6.3,4.7c-0.2,1.5-0.1,3-0.1,4.5c0,66.4-0.1,132.8-0.1,199.2c0,1.9-0.1,3.8-0.4,5.6
	c-0.9,4.7-4.6,8-9.4,8.1c-6.1,0.1-12.2,0.2-18.4,0c-6.4-0.2-10.7-4.9-10.7-11.5c0-27.1,0-54.2-0.1-81.2c0-1.7-0.1-3.5-0.7-5.1
	c-0.8-2.6-3-3.5-5.6-3.3c-2.7,0.2-4.4,1.8-4.8,4.4c-0.3,1.5-0.2,3-0.2,4.5c0,26.3,0,52.7,0,79c0,9.9-3.4,13.3-13.2,13.4
	c-4.5,0-9,0-13.5,0c-8.3,0-12.1-3.8-12.1-12.1c0-47.4,0-94.9-0.1-142.3c0-19.7,0-39.4,0-59.2c0-3.4,0.3-6.9-3.8-8.5
	c-3.2-1.2-6.5,0.2-9.6,4c-5.2,6.6-10.4,13.1-15.4,19.8c-3.7,4.9-8.5,7.1-14.4,7.1c-14.6,0-29.2,0-43.8,0c-1.8,0-3.8-0.4-5.4-1.2
	c-6-3.1-6.4-9.2-5.1-18.8c0.7-5.3,4.9-8,11-8.1c10.6-0.1,21.2-0.3,31.8,0c4.3,0.1,7-1.1,9.7-4.6c8.7-11.2,17.7-22.1,26.8-33
	c7-8.4,16-13,27-13c32.1-0.1,64.2,0,96.3,0c11.6,0,23.1,8,24.2,20.5c0,0.5,0.3,0.9,0.5,1.4C594.9,494.3,594.9,531.8,594.9,569.2z"/>
<g>
	<path class="st6" d="M123.7,462.2c62.1-28.3,70.4-10.1,132.5-38.4S309.9,377.3,372,349"/>
</g>
<circle class="st7" cx="151.8" cy="477.4" r="0.8"/>
<circle class="st7" cx="321.8" cy="397.4" r="0.8"/>
<circle class="st7" cx="181.8" cy="397.4" r="0.8"/>
<circle class="st7" cx="301.8" cy="427.4" r="0.8"/>
<circle class="st7" cx="362.8" cy="397.4" r="0.8"/>
<circle class="st7" cx="261.8" cy="457.4" r="0.8"/>
<circle class="st7" cx="261.8" cy="386.4" r="0.8"/>
<circle class="st7" cx="201.8" cy="487.4" r="0.8"/>
<circle class="st7" cx="230.8" cy="417.4" r="0.8"/>
<circle class="st7" cx="141.8" cy="436.4" r="0.8"/>
<circle class="st7" cx="312.8" cy="357.4" r="0.8"/>
<rect x="63" y="203.8" class="st4" width="630.7" height="134.8"/>
<text transform="matrix(1 0 0 1 63.0498 281.27)" class="st8 st9 st10">datateachr</text>
</svg>
